name analog
datacolumns 19
datarows 39
range 0.194 0.213
endheader
time	ground_force_vx	ground_force_vy	ground_force_vz	ground_force_px	ground_force_py	ground_force_pz	l_ground_force_vx	l_ground_force_vy	l_ground_force_vz	l_ground_force_px	l_ground_force_py	l_ground_force_pz	ground_torque_x	ground_torque_y	ground_torque_z	l_ground_torque_x	l_ground_torque_y	l_ground_torque_z
0.194	-0.0	-0.0	-0.0	-0.0	-0.0	-0.0	0.0186365619301795	-0.3532867431640625	-640.2149658203125	-0.0	-0.0	-0.0	-0.0	-0.0	-0.0	165384.03125	-5048.87939453125	-2070.32763671875
0.1945	-0.0	-0.0	-0.0	-0.0	-0.0	-0.0	0.3363611102104187	0.548331081867218	-639.3766479492188	-0.0	-0.0	-0.0	-0.0	-0.0	-0.0	165373.765625	-5066.61962890625	-1998.85400390625
0.195	-0.0	-0.0	-0.0	-0.0	-0.0	-0.0	0.691344141960144	1.3963786363601685	-639.296630859375	-0.0	-0.0	-0.0	-0.0	-0.0	-0.0	165116.4375	-5209.4072265625	-1956.9803466796875
0.1955	-0.0	-0.0	-0.0	-0.0	-0.0	-0.0	0.9758186340332032	1.4833327531814575	-638.8040771484375	-0.0	-0.0	-0.0	-0.0	-0.0	-0.0	164992.859375	-5251.19775390625	-1962.4510498046875
0.196	-0.0	-0.0	-0.0	-0.0	-0.0	-0.0	1.6329165697097778	1.5546205043792725	-636.7814331054688	-0.0	-0.0	-0.0	-0.0	-0.0	-0.0	164538.125	-5146.13720703125	-1825.8021240234373
0.1965	-0.0	-0.0	-0.0	-0.0	-0.0	-0.0	1.8270556926727293	1.1481819152832031	-635.5264892578125	-0.0	-0.0	-0.0	-0.0	-0.0	-0.0	163938.984375	-5496.28173828125	-1653.759521484375
0.197	-0.0	-0.0	-0.0	-0.0	-0.0	-0.0	2.430652141571045	0.4417251348495483	-635.4559326171875	-0.0	-0.0	-0.0	-0.0	-0.0	-0.0	163621.9375	-5521.4892578125	-1588.159423828125
0.1975	-0.0	-0.0	-0.0	-0.0	-0.0	-0.0	2.76741886138916	-0.0883216857910156	-633.9888916015625	-0.0	-0.0	-0.0	-0.0	-0.0	-0.0	163240.953125	-5608.27490234375	-1522.80322265625
0.198	-0.0	-0.0	-0.0	-0.0	-0.0	-0.0	3.0511953830718994	-0.706573486328125	-631.8265380859375	-0.0	-0.0	-0.0	-0.0	-0.0	-0.0	162758.609375	-5848.166015625	-1409.9798583984375
0.1985	-0.0	-0.0	-0.0	-0.0	-0.0	-0.0	3.051842212677002	-1.41314697265625	-630.4994506835938	-0.0	-0.0	-0.0	-0.0	-0.0	-0.0	161793.546875	-5767.1728515625	-1404.3280029296875
0.199	-0.0	-0.0	-0.0	-0.0	-0.0	-0.0	2.91023588180542	-1.9786657094955444	-628.0560302734375	-0.0	-0.0	-0.0	-0.0	-0.0	-0.0	161242.796875	-5462.041015625	-1297.8924560546875
0.1995	-0.0	-0.0	-0.0	-0.0	-0.0	-0.0	3.104877471923828	-2.634246587753296	-626.8681030273438	-0.0	-0.0	-0.0	-0.0	-0.0	-0.0	160697.015625	-5569.0283203125	-1422.877197265625
0.2	-0.0	-0.0	-0.0	-0.0	-0.0	-0.0	2.99922776222229	-3.1438522338867188	-624.0830688476562	-0.0	-0.0	-0.0	-0.0	-0.0	-0.0	160061.71875	-5447.11328125	-1375.211181640625
0.2005	-0.0	-0.0	-0.0	-0.0	-0.0	-0.0	2.7164101600646973	-3.673719167709351	-623.2265014648438	-0.0	-0.0	-0.0	-0.0	-0.0	-0.0	160088.609375	-5346.75	-1452.5391845703125
0.201	-0.0	-0.0	-0.0	-0.0	-0.0	-0.0	2.3758342266082764	-3.817104578018189	-623.1594848632812	-0.0	-0.0	-0.0	-0.0	-0.0	-0.0	159679.203125	-4944.07958984375	-1524.191650390625
0.2015	-0.0	-0.0	-0.0	-0.0	-0.0	-0.0	1.5967941284179688	-4.151119232177734	-623.235595703125	-0.0	-0.0	-0.0	-0.0	-0.0	-0.0	159656.671875	-4941.56103515625	-1784.2593994140625
0.202	-0.0	-0.0	-0.0	-0.0	-0.0	-0.0	0.9791991114616394	-4.291760921478272	-623.7138061523438	-0.0	-0.0	-0.0	-0.0	-0.0	-0.0	159887.359375	-4626.474609375	-1916.4647216796875
0.2025	-0.0	-0.0	-0.0	-0.0	-0.0	-0.0	0.3910807967185974	-4.837778091430664	-624.1895751953125	-0.0	-0.0	-0.0	-0.0	-0.0	-0.0	160076.859375	-4195.86474609375	-2070.744873046875
0.203	-0.0	-0.0	-0.0	-0.0	-0.0	-0.0	-0.1774215698242187	-5.263152599334717	-625.8225708007812	-0.0	-0.0	-0.0	-0.0	-0.0	-0.0	160335.53125	-3970.525146484375	-2173.697021484375
0.20350000000000001	-0.0	-0.0	-0.0	-0.0	-0.0	-0.0	-1.3306617736816406	-5.648175239562988	-626.7445678710938	-0.0	-0.0	-0.0	-0.0	-0.0	-0.0	160942.765625	-3859.626220703125	-2410.508056640625
0.20400000000000001	-0.0	-0.0	-0.0	-0.0	-0.0	-0.0	-1.9564557075500488	-6.161975383758545	-629.0087890625	-0.0	-0.0	-0.0	-0.0	-0.0	-0.0	161302.921875	-3264.232666015625	-2678.00830078125
0.20450000000000002	-0.0	-0.0	-0.0	-0.0	-0.0	-0.0	-3.0004775524139404	-6.094196319580078	-631.1841430664062	-0.0	-0.0	-0.0	-0.0	-0.0	-0.0	161840.578125	-3020.2607421875	-2797.34814453125
0.20500000000000002	-0.0	-0.0	-0.0	-0.0	-0.0	-0.0	-3.6215991973876953	-5.62163782119751	-631.26611328125	-0.0	-0.0	-0.0	-0.0	-0.0	-0.0	162315.375	-2842.377197265625	-2898.846435546875
0.20550000000000002	-0.0	-0.0	-0.0	-0.0	-0.0	-0.0	-3.866616487503052	-4.473752021789551	-632.8675537109375	-0.0	-0.0	-0.0	-0.0	-0.0	-0.0	162951.8125	-2520.331298828125	-2994.806884765625
0.20600000000000002	-0.0	-0.0	-0.0	-0.0	-0.0	-0.0	-3.836018085479736	-4.068957328796387	-634.0349731445312	-0.0	-0.0	-0.0	-0.0	-0.0	-0.0	163496.953125	-2678.83251953125	-2923.1171875
0.20650000000000002	-0.0	-0.0	-0.0	-0.0	-0.0	-0.0	-3.829676628112793	-3.2829489707946777	-635.4559326171875	-0.0	-0.0	-0.0	-0.0	-0.0	-0.0	164164.328125	-2483.682373046875	-2972.81689453125
0.20700000000000002	-0.0	-0.0	-0.0	-0.0	-0.0	-0.0	-3.6590383052825928	-1.714819312095642	-637.668701171875	-0.0	-0.0	-0.0	-0.0	-0.0	-0.0	164931.078125	-2643.75341796875	-2910.11376953125
0.20750000000000002	-0.0	-0.0	-0.0	-0.0	-0.0	-0.0	-2.75003433227539	-0.6402405500411987	-638.3944702148438	-0.0	-0.0	-0.0	-0.0	-0.0	-0.0	165620.421875	-2636.870361328125	-2582.89013671875
0.20800000000000002	-0.0	-0.0	-0.0	-0.0	-0.0	-0.0	-1.7448318004608154	0.5001185536384583	-639.296630859375	-0.0	-0.0	-0.0	-0.0	-0.0	-0.0	165755.84375	-2760.2705078125	-2297.620849609375
0.2085	-0.0	-0.0	-0.0	-0.0	-0.0	-0.0	-1.0711555480957031	1.316920042037964	-640.2554931640625	-0.0	-0.0	-0.0	-0.0	-0.0	-0.0	166140.78125	-3086.526123046875	-2017.5819091796875
0.209	-0.0	-0.0	-0.0	-0.0	-0.0	-0.0	-0.8788027763366699	1.729451298713684	-639.9381713867188	-0.0	-0.0	-0.0	-0.0	-0.0	-0.0	166205.328125	-3419.653564453125	-1681.3922119140625
0.2095	-0.0	-0.0	-0.0	-0.0	-0.0	-0.0	0.4863691329956054	2.663859605789185	-640.5467529296875	-0.0	-0.0	-0.0	-0.0	-0.0	-0.0	166418.046875	-3756.759765625	-1410.4056396484375
0.21	-0.0	-0.0	-0.0	-0.0	-0.0	-0.0	1.1815311908721924	2.8122105598449707	-640.0859985351562	-0.0	-0.0	-0.0	-0.0	-0.0	-0.0	166596.9375	-4003.484619140625	-1071.0810546875
0.2105	-0.0	-0.0	-0.0	-0.0	-0.0	-0.0	2.054338932037353	2.9378821849823	-640.4911499023438	-0.0	-0.0	-0.0	-0.0	-0.0	-0.0	166836.9375	-4071.31201171875	-670.7088623046875
0.211	-0.0	-0.0	-0.0	-0.0	-0.0	-0.0	2.456199884414673	3.4072799682617188	-640.0877075195312	-0.0	-0.0	-0.0	-0.0	-0.0	-0.0	166498.03125	-3865.4560546875	-479.8968811035156
0.2115	-0.0	-0.0	-0.0	-0.0	-0.0	-0.0	1.8254334926605225	3.189579963684082	-639.7393188476562	-0.0	-0.0	-0.0	-0.0	-0.0	-0.0	166217.828125	-3891.3818359375	-523.8965454101562
0.212	-0.0	-0.0	-0.0	-0.0	-0.0	-0.0	0.8975375890731812	3.128664493560791	-639.2021484375	-0.0	-0.0	-0.0	-0.0	-0.0	-0.0	165786.625	-3493.238037109375	-663.739013671875
0.2125	-0.0	-0.0	-0.0	-0.0	-0.0	-0.0	-0.4059207737445831	2.962780714035034	-636.2600708007812	-0.0	-0.0	-0.0	-0.0	-0.0	-0.0	165275.578125	-2977.4580078125	-927.2098388671876
0.213	-0.0	-0.0	-0.0	-0.0	-0.0	-0.0	-1.9782339334487915	2.2323429584503174	-634.059326171875	-0.0	-0.0	-0.0	-0.0	-0.0	-0.0	164898.359375	-2906.39990234375	-1093.2305908203125
